<?xml version="1.0" encoding="UTF-8"?>
<svg width="48px" height="53px" viewBox="0 0 48 53" version="1.1" xmlns="http://www.w3.org/2000/svg" xmlns:xlink="http://www.w3.org/1999/xlink">
    <!-- Generator: Sketch 52.2 (67145) - http://www.bohemiancoding.com/sketch -->
    <title>nationalJournal Copy</title>
    <desc>Created with Sketch.</desc>
    <g id="Page-2" stroke="none" stroke-width="1" fill="none" fill-rule="evenodd">
        <g id="KatyOnepager" transform="translate(-1212.000000, -1606.000000)">
            <g id="Experiences" transform="translate(0.000000, 1024.000000)">
                <g id="NationalJexperience-Copy" transform="translate(374.000000, 572.000000)">
                    <g id="nationalJournal-Copy" transform="translate(838.000000, 10.000000)">
                        <path d="M44.8115901,17.0025157 L48,16.2195541 L48,12 L33.009135,12 L33.009135,16.2195541 L36.3382815,17.0025157 L36.3382815,41.0024013 C36.3382815,45.4141795 34.5329718,46.6566038 31,48.9070326 L33.0479589,53 C39.4247787,51.1246427 44.8018841,47.5755288 44.8018841,40.7679817 L44.8115901,17.0025157 Z" id="Shape" fill="#100C08"></path>
                        <path d="M21.5302594,17.0134582 L21.5302594,23.2065535 C21.5302594,26.6050322 21.6666161,30.2796957 21.897012,32.3908718 L21.8076748,32.3908718 C20.8682822,29.5648947 19.7080545,26.81649 18.3376308,24.1708602 L12.1169422,12 L0,12 L0,16.21299 L3.04216594,16.9947337 L3.04216594,39.4125219 L0,40.1942657 L0,44 L12.7234946,44 L12.7234946,40.1942657 L9.63430912,39.4125219 L9.63430912,31.3329433 C9.63430912,27.6629608 9.54497194,23.8993564 9.31457607,21.6477472 L9.40391324,21.6477472 C10.370254,24.423094 11.5410889,27.1236267 12.9068709,29.7273259 L20.7450326,44 L28.1412104,44 L28.1412104,17.0134582 L31,16.2317145 L31,12.0187244 L18.4410738,12.0187244 L18.4410738,16.2317145 L21.5302594,17.0134582 Z" id="Shape" fill="#100C08"></path>
                        <rect id="Rectangle-path" fill="#000000" x="0" y="0" width="48" height="9"></rect>
                    </g>
                </g>
            </g>
        </g>
    </g>
</svg>