<?xml version="1.0" encoding="UTF-8"?>
<svg width="65px" height="57px" viewBox="0 0 65 57" version="1.1" xmlns="http://www.w3.org/2000/svg" xmlns:xlink="http://www.w3.org/1999/xlink">
    <!-- Generator: Sketch 52.2 (67145) - http://www.bohemiancoding.com/sketch -->
    <title>01</title>
    <desc>Created with Sketch.</desc>
    <g id="Page-2" stroke="none" stroke-width="1" fill="none" fill-rule="evenodd" opacity="0.0964239211">
        <g id="KatyOnepager-measuring" transform="translate(-387.000000, -1280.000000)" fill="#100C08">
            <g id="Experiences" transform="translate(0.000000, 1024.000000)">
                <g id="Deloitte-experience" transform="translate(381.000000, 238.000000)">
                    <path d="M24.163,18.3 C29.752,18.3 34.45,20.163 37.609,23.808 C40.687,27.291 42.307,32.07 42.307,38.145 L42.307,55.155 C42.307,61.23 40.687,66.009 37.609,69.492 C34.45,73.137 29.752,75 24.163,75 C18.574,75 13.876,73.137 10.717,69.492 C7.639,66.009 6.1,61.23 6.1,55.155 L6.1,38.145 C6.1,32.07 7.639,27.291 10.717,23.808 C13.876,20.163 18.574,18.3 24.163,18.3 Z M24.163,27.21 C21.166,27.21 18.817,28.02 17.359,29.721 C15.82,31.503 15.01,34.338 15.01,38.145 L15.01,55.155 C15.01,58.881 15.82,61.797 17.359,63.579 C18.817,65.28 21.166,66.09 24.163,66.09 C27.241,66.09 29.509,65.28 30.967,63.579 C32.506,61.797 33.397,58.881 33.397,55.155 L33.397,38.145 C33.397,34.338 32.506,31.503 30.967,29.721 C29.509,28.02 27.241,27.21 24.163,27.21 Z M70.9,75 L61.99,75 L61.99,33.528 L55.915,39.522 L49.597,33.285 L64.582,18.3 L70.9,18.3 L70.9,75 Z" id="01"></path>
                </g>
            </g>
        </g>
    </g>
</svg>