<?xml version="1.0" encoding="UTF-8"?>
<svg width="82px" height="57px" viewBox="0 0 82 57" version="1.1" xmlns="http://www.w3.org/2000/svg" xmlns:xlink="http://www.w3.org/1999/xlink">
    <!-- Generator: Sketch 52.2 (67145) - http://www.bohemiancoding.com/sketch -->
    <title>02</title>
    <desc>Created with Sketch.</desc>
    <g id="Page-2" stroke="none" stroke-width="1" fill="none" fill-rule="evenodd" opacity="0.0964239211">
        <g id="KatyOnepager-measuring" transform="translate(-380.000000, -1614.000000)" fill="#100C08">
            <g id="Experiences" transform="translate(0.000000, 1024.000000)">
                <g id="NationalJexperience-Copy" transform="translate(374.000000, 572.000000)">
                    <path d="M24.401,18.3 C29.99,18.3 34.688,20.163 37.847,23.808 C40.925,27.291 42.545,32.07 42.545,38.145 L42.545,55.155 C42.545,61.23 40.925,66.009 37.847,69.492 C34.688,73.137 29.99,75 24.401,75 C18.812,75 14.114,73.137 10.955,69.492 C7.877,66.009 6.338,61.23 6.338,55.155 L6.338,38.145 C6.338,32.07 7.877,27.291 10.955,23.808 C14.114,20.163 18.812,18.3 24.401,18.3 Z M24.401,27.21 C21.404,27.21 19.055,28.02 17.597,29.721 C16.058,31.503 15.248,34.338 15.248,38.145 L15.248,55.155 C15.248,58.881 16.058,61.797 17.597,63.579 C19.055,65.28 21.404,66.09 24.401,66.09 C27.479,66.09 29.747,65.28 31.205,63.579 C32.744,61.797 33.635,58.881 33.635,55.155 L33.635,38.145 C33.635,34.338 32.744,31.503 31.205,29.721 C29.747,28.02 27.479,27.21 24.401,27.21 Z M69.032,18.3 L69.599,18.3 C75.026,18.3 79.4,19.677 82.64,22.512 C85.961,25.428 87.662,29.64 87.662,34.662 C87.662,37.335 87.257,39.846 86.528,42.033 C85.718,44.301 84.503,46.326 82.802,47.946 C81.182,49.566 79.157,50.862 76.889,51.672 C74.702,52.401 72.272,52.806 69.599,52.806 C66.521,52.806 64.253,53.616 62.795,55.317 C61.175,57.099 60.365,60.015 60.365,63.741 L60.365,66.09 L87.662,66.09 L87.662,75 L51.455,75 L51.455,63.741 C51.455,57.666 52.994,52.887 56.153,49.404 C59.312,45.759 63.929,43.896 69.599,43.896 C72.677,43.896 75.026,43.167 76.565,41.628 C78.023,40.17 78.752,37.821 78.752,34.662 C78.752,32.151 78.104,30.369 76.727,29.235 C75.269,27.858 72.758,27.21 69.599,27.21 L69.032,27.21 C64.091,27.21 61.256,29.316 60.284,33.933 L51.536,31.989 C52.508,27.696 54.533,24.294 57.611,21.864 C60.689,19.515 64.496,18.3 69.032,18.3 Z" id="02"></path>
                </g>
            </g>
        </g>
    </g>
</svg>