<?xml version="1.0" encoding="UTF-8"?>
<svg width="80px" height="57px" viewBox="0 0 80 57" version="1.1" xmlns="http://www.w3.org/2000/svg" xmlns:xlink="http://www.w3.org/1999/xlink">
    <!-- Generator: Sketch 52.2 (67145) - http://www.bohemiancoding.com/sketch -->
    <title>03</title>
    <desc>Created with Sketch.</desc>
    <g id="Page-2" stroke="none" stroke-width="1" fill="none" fill-rule="evenodd" opacity="0.0964239211">
        <g id="KatyOnepager-measuring" transform="translate(-381.000000, -1878.000000)" fill="#100C08">
            <g id="Experiences" transform="translate(0.000000, 1024.000000)">
                <g id="InternationExp" transform="translate(374.000000, 836.000000)">
                    <path d="M25.4945,18.3 C31.0835,18.3 35.7815,20.163 38.9405,23.808 C42.0185,27.291 43.6385,32.07 43.6385,38.145 L43.6385,55.155 C43.6385,61.23 42.0185,66.009 38.9405,69.492 C35.7815,73.137 31.0835,75 25.4945,75 C19.9055,75 15.2075,73.137 12.0485,69.492 C8.9705,66.009 7.4315,61.23 7.4315,55.155 L7.4315,38.145 C7.4315,32.07 8.9705,27.291 12.0485,23.808 C15.2075,20.163 19.9055,18.3 25.4945,18.3 Z M25.4945,27.21 C22.4975,27.21 20.1485,28.02 18.6905,29.721 C17.1515,31.503 16.3415,34.338 16.3415,38.145 L16.3415,55.155 C16.3415,58.881 17.1515,61.797 18.6905,63.579 C20.1485,65.28 22.4975,66.09 25.4945,66.09 C28.5725,66.09 30.8405,65.28 32.2985,63.579 C33.8375,61.797 34.7285,58.881 34.7285,55.155 L34.7285,38.145 C34.7285,34.338 33.8375,31.503 32.2985,29.721 C30.8405,28.02 28.5725,27.21 25.4945,27.21 Z M68.4245,18.3 C73.9325,18.3 78.3065,19.677 81.4655,22.512 C84.7865,25.428 86.5685,29.64 86.5685,34.662 C86.5685,39.603 84.8675,43.734 81.7895,46.65 C84.8675,49.566 86.5685,53.616 86.5685,58.557 C86.5685,63.66 84.7865,67.872 81.4655,70.788 C78.3065,73.623 73.9325,75 68.4245,75 C63.8885,75 60.0005,73.785 57.0035,71.436 C53.9255,69.006 51.9005,65.604 50.9285,61.23 L59.5955,59.367 C60.6485,63.984 63.4025,66.09 68.4245,66.09 C71.6645,66.09 74.0945,65.361 75.6335,64.065 C76.9295,62.931 77.6585,61.068 77.6585,58.557 C77.6585,56.046 76.9295,54.264 75.6335,53.13 C74.0945,51.753 71.6645,51.105 68.4245,51.105 L65.0225,51.105 L65.0225,42.195 L68.4245,42.195 C71.6645,42.195 74.0945,41.466 75.6335,40.17 C76.9295,39.036 77.6585,37.173 77.6585,34.662 C77.6585,32.151 76.9295,30.369 75.6335,29.235 C74.0945,27.858 71.6645,27.21 68.4245,27.21 C63.4025,27.21 60.6485,29.316 59.5955,33.933 L50.9285,31.989 C51.9005,27.696 53.9255,24.294 57.0035,21.864 C60.0005,19.515 63.8885,18.3 68.4245,18.3 Z" id="03"></path>
                </g>
            </g>
        </g>
    </g>
</svg>