<?xml version="1.0" encoding="UTF-8"?>
<svg width="116px" height="23px" viewBox="0 0 116 23" version="1.1" xmlns="http://www.w3.org/2000/svg" xmlns:xlink="http://www.w3.org/1999/xlink">
    <!-- Generator: Sketch 52.2 (67145) - http://www.bohemiancoding.com/sketch -->
    <title>deloitte</title>
    <desc>Created with Sketch.</desc>
    <g id="Page-2" stroke="none" stroke-width="1" fill="none" fill-rule="evenodd">
        <g id="KatyOnepager" transform="translate(-1144.000000, -1273.000000)">
            <g id="Experiences" transform="translate(0.000000, 1024.000000)">
                <g id="Deloitte-experience" transform="translate(381.000000, 238.000000)">
                    <g id="deloitte" transform="translate(763.000000, 11.000000)">
                        <path d="M17,11.57461 C17,14.9137218 16.0785545,17.4847313 14.2383346,19.2903054 C12.3981147,21.0958795 9.81272582,22 6.47949724,22 L0,22 L0,2 L6.93087194,2 C10.1465829,2 12.6278083,2.82144286 14.3772191,4.46166156 C16.1239591,6.10188026 17,8.47286306 17,11.57461 M11.3831893,11.7666355 C11.3831893,9.93439129 11.0199528,8.5742099 10.2934799,7.68875851 C9.56700702,6.80597414 8.4666143,6.36324843 6.98428906,6.36324843 L5.41115474,6.36324843 L5.41115474,17.567409 L6.61571091,17.567409 C8.26095835,17.567409 9.46551447,17.090012 10.2320502,16.1378851 C10.998586,15.1830911 11.3831893,13.7268969 11.3831893,11.7666355" id="Fill-1" fill="#000000" fill-rule="nonzero"></path>
                        <polygon id="Fill-3" fill="#100C08" points="41.6023723 22.044337 36.1299554 22.044337 36.1299554 0.207446849 41.6023723 0.207446849"></polygon>
                        <path d="M59.3863635,14.0600958 C59.3863635,16.6621359 58.6907172,18.6895931 57.2939687,20.1424672 C55.8999483,21.5980775 53.9494108,22.3258826 51.4396284,22.3258826 C49.0335108,22.3258826 47.1184376,21.5816608 45.6944089,20.0959534 C44.2731082,18.6075097 43.5610939,16.5964692 43.5610939,14.0600958 C43.5610939,11.469 44.2594681,9.45522342 45.6534886,8.01876592 C47.047509,6.58230842 49.0035025,5.86271162 51.5241971,5.86271162 C53.081899,5.86271162 54.4568233,6.19651698 55.651698,6.8613916 C56.8438447,7.52353009 57.7659169,8.47569621 58.4151868,9.71788989 C59.0617286,10.9546115 59.3863635,12.4047495 59.3863635,14.0600958 M49.1153515,14.0600958 C49.1153515,15.4254144 49.2981292,16.4678721 49.6609564,17.1819967 C50.0265117,17.8988574 50.6375892,18.2545517 51.4941889,18.2545517 C52.3426044,18.2545517 52.9427698,17.8988574 53.291957,17.1819967 C53.643872,16.4678721 53.8184656,15.4254144 53.8184656,14.0600958 C53.8184656,12.7029854 53.6411441,11.6796804 53.2865009,10.9874447 C52.9318577,10.2952091 52.3262363,9.9477231 51.4669086,9.9477231 C50.6266771,9.9477231 50.0265117,10.2924729 49.6609564,10.9792364 C49.2981292,11.6659999 49.1153515,12.6947771 49.1153515,14.0600958" id="Fill-5" fill="#100C08" fill-rule="nonzero"></path>
                        <polygon id="Fill-6" fill="#100C08" points="66.8611504 22.044337 61.3914614 22.044337 61.3914614 6.14480451 66.8611504 6.14480451"></polygon>
                        <polygon id="Fill-7" fill="#100C08" points="66.8611504 4.67004147 61.3914614 4.67004147 61.3914614 0.14451633 66.8611504 0.14451633"></polygon>
                        <path d="M77.2988446,17.9894227 C78.0354112,17.9894227 78.916563,17.8061033 79.9423002,17.4422007 L79.9423002,21.4423928 C79.2057336,21.7597816 78.5046313,21.9868786 77.8389934,22.1236841 C77.1706274,22.2577535 76.3904124,22.3261562 75.4928925,22.3261562 C73.656932,22.3261562 72.3311121,21.8746982 71.5208889,20.971782 C70.7079376,20.0688659 70.3041899,18.6816583 70.3041899,16.8101594 L70.3041899,10.2571771 L68.3863888,10.2571771 L68.3863888,6.14480451 L70.3041899,6.14480451 L70.3041899,2.34161227 L75.8175273,1.14593242 L75.8175273,6.14480451 L79.3093986,6.14480451 L79.3093986,10.2571771 L75.8175273,10.2571771 L75.8175273,16.4462568 C75.8175273,17.475034 76.3112998,17.9894227 77.2988446,17.9894227" id="Fill-8" fill="#100C08"></path>
                        <path d="M89.4854749,17.9894227 C90.2220416,17.9894227 91.1031938,17.8061033 92.1289306,17.4422007 L92.1289306,21.4423928 C91.3923639,21.7597816 90.6912624,21.9868786 90.0256237,22.1236841 C89.3572582,22.2577535 88.577043,22.3261562 87.6795229,22.3261562 C85.8435627,22.3261562 84.5177428,21.8746982 83.7075195,20.971782 C82.8945683,20.0688659 82.4880927,18.6816583 82.4880927,16.8101594 L82.4880927,10.2571771 L80.5730195,10.2571771 L80.5730195,6.14480451 L82.4880927,6.14480451 L82.4880927,2.34161227 L88.0014297,1.14593242 L88.0014297,6.14480451 L91.4933009,6.14480451 L91.4933009,10.2571771 L88.0014297,10.2571771 L88.0014297,16.4462568 C88.0014297,17.475034 88.4952025,17.9894227 89.4854749,17.9894227" id="Fill-9" fill="#100C08"></path>
                        <path d="M112.909384,16.1863264 C114.6144,16.1863264 115.997508,17.5762701 115.997508,19.2863386 C115.997508,20.996407 114.6144,22.3863506 112.909384,22.3863506 C111.20164,22.3863506 109.818532,20.996407 109.818532,19.2863386 C109.818532,17.5762701 111.20164,16.1863264 112.909384,16.1863264 Z" id="Fill-10" fill="#86BC25"></path>
                        <path d="M106.272646,7.73776747 C104.971378,6.49010153 103.127234,5.86353245 100.737485,5.86353245 C98.23043,5.86353245 96.298989,6.58312926 94.9458891,8.01958675 C93.5927892,9.45330811 92.9162388,11.5163347 92.9162388,14.2004582 C92.9162388,16.7997622 93.6473493,18.8053304 95.1068425,20.2144269 C96.5663358,21.6207872 98.6178094,22.3267035 101.25581,22.3267035 C102.524341,22.3267035 103.615551,22.2418841 104.532167,22.0722453 C105.437871,21.9053426 106.319023,21.6043706 107.172895,21.1693291 L106.332663,17.5850257 C105.713401,17.8340116 105.12142,18.0255393 104.564903,18.1514003 C103.757408,18.3347196 102.876256,18.4250112 101.913264,18.4250112 C100.860245,18.4250112 100.028198,18.1732892 99.4171211,17.6671089 C98.8060433,17.1609287 98.4814088,16.4659568 98.4432166,15.5767212 L108.223183,15.5767212 L108.223183,13.1333754 C108.223183,10.7857934 107.573914,8.98543343 106.272646,7.73776747 Z M98.5550654,12.1237511 C98.6314496,11.2536682 98.8851561,10.6161547 99.3189117,10.2084744 C99.7526681,9.80079407 100.290088,9.59832192 100.933902,9.59832192 C101.635004,9.59832192 102.191522,9.82541907 102.606181,10.2850854 C103.020841,10.7447518 103.239083,11.3549042 103.25818,12.1237511 L98.5550654,12.1237511 Z" id="Fill-11" fill="#100C08" fill-rule="nonzero"></path>
                        <path d="M32.2316084,7.73776747 C30.9303408,6.49010153 29.0861963,5.86353245 26.6964469,5.86353245 C24.1893925,5.86353245 22.2579512,6.58312926 20.9048511,8.01958675 C19.551751,9.45330811 18.8752009,11.5163347 18.8752009,14.2004582 C18.8752009,16.7997622 19.6063115,18.8053304 21.0658045,20.2144269 C22.5252976,21.6207872 24.5767719,22.3267035 27.2147715,22.3267035 C28.4833029,22.3267035 29.5745127,22.2418841 30.4911289,22.0722453 C31.3968329,21.9053426 32.2779849,21.6043706 33.1318565,21.1693291 L32.291625,17.5850257 C31.6723635,17.8340116 31.0803821,18.0255393 30.5238651,18.1514003 C29.7163699,18.3347196 28.8352181,18.4250112 27.8722255,18.4250112 C26.819208,18.4250112 25.9871606,18.1732892 25.3760831,17.6671089 C24.7650056,17.1609287 24.4403707,16.4659568 24.4021784,15.5767212 L34.1821459,15.5767212 L34.1821459,13.1333754 C34.1821459,10.7857934 33.5328761,8.98543343 32.2316084,7.73776747 Z M24.5140274,12.1237511 C24.5904121,11.2536682 24.8441183,10.6161547 25.2778742,10.2084744 C25.7116301,9.80079407 26.2490509,9.59832192 26.8928647,9.59832192 C27.593967,9.59832192 28.1504839,9.82541907 28.5651436,10.2850854 C28.9798034,10.7447518 29.1980453,11.3549042 29.2171415,12.1237511 L24.5140274,12.1237511 Z" id="Fill-12" fill="#100C08" fill-rule="nonzero"></path>
                    </g>
                </g>
            </g>
        </g>
    </g>
</svg>