<svg version="1.1" id="Layer_1" xmlns="http://www.w3.org/2000/svg" xmlns:xlink="http://www.w3.org/1999/xlink" x="0px" y="0px" viewBox="0 0 75.604 30.793" enable-background="new 0 0 75.604 30.793" xml:space="preserve">
<rect x="1.55" y="10.252" fill="#6DB650" width="5.991" height="14.916"/>
<g>
	<defs>
		<rect id="SVGID_3_" x="0" y="0" width="75.604" height="30.793"/>
	</defs>
	<clipPath id="SVGID_2_">
		<use xlink:href="#SVGID_3_" overflow="visible"/>
	</clipPath>
	<path clip-path="url(#SVGID_2_)" fill="#6DB650" d="M23.303,18.468H22.83c-2.479,0-4.207,0.159-5.181,0.478   c-0.976,0.319-1.464,0.864-1.464,1.636c0,0.551,0.249,0.964,0.747,1.239c0.498,0.275,1.245,0.413,2.241,0.413   c1.331,0,2.352-0.295,3.063-0.884c0.711-0.589,1.067-1.438,1.067-2.549V18.468z M23.455,22.926c-0.651,0.838-1.6,1.478-2.85,1.919   c-1.249,0.443-2.732,0.665-4.448,0.665c-1.982,0-3.514-0.395-4.595-1.186c-1.082-0.792-1.623-1.91-1.623-3.356   c0-0.901,0.208-1.711,0.624-2.429c0.416-0.719,1.02-1.305,1.812-1.763c0.629-0.377,1.51-0.646,2.642-0.806   c1.131-0.16,2.92-0.241,5.367-0.241h2.919c0-0.057,0.005-0.132,0.015-0.222c0.01-0.091,0.015-0.156,0.015-0.194   c0-0.804-0.253-1.416-0.756-1.837c-0.504-0.422-1.236-0.632-2.193-0.632c-1.092,0-1.902,0.139-2.431,0.416   c-0.53,0.276-0.846,0.724-0.948,1.344h-6.042c0.192-1.619,1.061-2.814,2.607-3.585c1.546-0.773,3.85-1.159,6.912-1.159   c2.95,0,5.122,0.463,6.516,1.387c1.393,0.925,2.091,2.36,2.091,4.305v7.624c0,0.424,0.023,0.792,0.068,1.107   c0.046,0.315,0.124,0.609,0.236,0.884h-5.559c-0.131-0.275-0.227-0.575-0.288-0.899c-0.06-0.324-0.091-0.678-0.091-1.062V22.926z"/>
	<path clip-path="url(#SVGID_2_)" fill="#6DB650" d="M8.91,4.254c0,2.349-1.995,4.254-4.454,4.254C1.995,8.508,0,6.603,0,4.254   c0-2.35,1.995-4.255,4.456-4.255C6.915-0.001,8.91,1.904,8.91,4.254"/>
	<path clip-path="url(#SVGID_2_)" fill="#6DB650" d="M65.215,22.486c1.289,0,2.318-0.403,3.088-1.208   c0.771-0.806,1.157-1.882,1.157-3.232c0-1.524-0.381-2.705-1.141-3.544c-0.761-0.839-1.826-1.259-3.196-1.259   c-1.339,0-2.387,0.402-3.143,1.208c-0.755,0.805-1.132,1.931-1.132,3.377c0,1.523,0.372,2.681,1.118,3.471   C62.711,22.09,63.794,22.486,65.215,22.486 M54.918,30.75V13.534c0-0.512-0.021-1.047-0.062-1.607   c-0.041-0.559-0.102-1.148-0.183-1.766h6.052c0.061,0.386,0.107,0.772,0.138,1.158c0.03,0.386,0.045,0.772,0.045,1.157v0.462   c0.829-1.031,1.822-1.817,2.98-2.357c1.158-0.54,2.435-0.811,3.83-0.811c2.477,0,4.41,0.702,5.8,2.104   c1.39,1.403,2.086,3.357,2.086,5.862c0,2.379-0.718,4.264-2.154,5.651c-1.435,1.387-3.386,2.081-5.854,2.081   c-1.334,0-2.557-0.209-3.67-0.626c-1.112-0.418-2.118-1.045-3.018-1.881v7.789H54.918z"/>
	<path clip-path="url(#SVGID_2_)" fill="#6DB650" d="M42.283,22.529c1.289,0,2.319-0.404,3.089-1.209   c0.77-0.806,1.156-1.882,1.156-3.231c0-1.525-0.38-2.706-1.141-3.545c-0.76-0.839-1.825-1.259-3.195-1.259   c-1.339,0-2.387,0.403-3.143,1.208c-0.755,0.806-1.133,1.931-1.133,3.377c0,1.524,0.372,2.681,1.118,3.472   C39.779,22.133,40.862,22.529,42.283,22.529 M31.986,30.793V13.576c0-0.511-0.021-1.046-0.061-1.606   c-0.041-0.559-0.102-1.148-0.184-1.766h6.053c0.06,0.386,0.107,0.772,0.138,1.158c0.03,0.386,0.045,0.772,0.045,1.157v0.462   c0.829-1.031,1.822-1.817,2.98-2.358c1.158-0.539,2.435-0.81,3.829-0.81c2.477,0,4.41,0.702,5.801,2.103   c1.391,1.404,2.086,3.357,2.086,5.862c0,2.38-0.719,4.264-2.154,5.652c-1.435,1.387-3.386,2.081-5.854,2.081   c-1.334,0-2.558-0.209-3.67-0.626c-1.112-0.418-2.119-1.045-3.018-1.881v7.789H31.986z"/>
</g>
</svg>